<svg xmlns="http://www.w3.org/2000/svg" xmlns:svg="http://www.w3.org/2000/svg" id="Layer_1" width="272.845" height="65.319" x="0" y="0" enable-background="new 0 0 341.876 123.115" version="1.1" viewBox="0 0 272.845 65.319" xml:space="preserve"><metadata id="metadata7794"/><polygon id="polygon7644" points="170.938 82.375 184.247 75.214 170.938 68.053 157.629 75.214" transform="translate(-32.258,-30.02)" style="fill:#0c6a8e"/><polygon id="polygon7646" points="163.187 74.195 165.08 73.177 166.74 74.07 169.052 72.826 167.751 72.126 171.113 70.317 171.93 70.757 172.531 70.433 173.955 71.199 174.475 70.919 177.837 72.728 175.415 74.031 176.612 74.676 177.613 74.137 179.614 75.214 177.97 76.099 178.855 76.575 176.853 77.651 174.968 76.637 173.925 77.198 175.276 77.926 171.914 79.735 170.407 78.924 168.901 79.735 165.539 77.926 166.437 77.442 164.877 76.603 165.469 76.285 164.28 75.645 162.552 76.575 160.023 75.214 162.552 73.853" transform="translate(-32.258,-30.02)" style="fill:#ededed"/><polygon id="polygon7648" points="190.884 48.254 190.884 32.559 204.193 39.72 204.193 55.415" transform="translate(-32.258,-30.02)" style="fill:#002151"/><polygon id="polygon7650" points="190.884 48.254 190.884 32.559 204.193 39.72 204.193 55.415" transform="translate(-32.258,-30.02)" style="fill:#0c6a8e"/><polygon id="polygon7652" points="193.106 42.189 193.106 35.228 199.009 38.404 199.009 45.366" transform="translate(-32.258,-30.02)" style="fill:#66a042"/><polygon id="polygon7654" points="194.938 44.773 194.938 38.639 200.139 41.438 200.139 47.572" transform="translate(-32.258,-30.02)" style="fill:#66a042"/><polygon id="polygon7656" points="198.004 43.313 198.004 38.947 201.707 40.939 201.707 45.306" transform="translate(-32.258,-30.02)" style="fill:#66a042"/><polygon id="polygon7658" points="199.009 49.698 199.009 45.332 202.712 47.324 202.712 51.691" transform="translate(-32.258,-30.02)" style="fill:#66a042"/><polygon id="polygon7660" points="190.885 39.619 190.885 35.252 193.472 36.644 193.472 41.011" transform="translate(-32.258,-30.02)" style="fill:#66a042"/><polygon id="polygon7662" points="203.277 50.671 203.277 48.511 204.193 49.004 204.193 51.164" transform="translate(-32.258,-30.02)" style="fill:#66a042"/><polygon id="polygon7664" points="201.707 50.671 201.707 48.511 203.539 49.497 203.539 51.657" transform="translate(-32.258,-30.02)" style="fill:#66a042"/><polygon id="polygon7666" points="202.623 42.714 202.623 40.554 204.192 41.398 204.192 43.558" transform="translate(-32.258,-30.02)" style="fill:#66a042"/><polygon id="polygon7668" points="203.277 52.062 203.277 49.902 204.187 50.392 204.193 52.554" transform="translate(-32.258,-30.02)" style="fill:#66a042"/><polygon id="polygon7670" points="202.06 52.244 202.06 50.084 203.892 51.069 203.892 53.229" transform="translate(-32.258,-30.02)" style="fill:#66a042"/><polygon id="polygon7672" points="193.106 47.526 193.106 45.366 194.938 46.351 194.938 48.511" transform="translate(-32.258,-30.02)" style="fill:#66a042"/><polygon id="polygon7674" points="192.447 42.457 192.447 40.297 194.279 41.282 194.279 43.442" transform="translate(-32.258,-30.02)" style="fill:#66a042"/><polygon id="polygon7676" points="155.243 56.706 155.243 41.011 141.934 48.172 141.934 63.867" transform="translate(-32.258,-30.02)" style="fill:#0c6a8e"/><g id="g7678" transform="translate(-32.258,-30.02)"><polygon id="polygon7680" points="151.875 47.26 151.875 46.088 148.808 47.738 148.808 46.396 145.105 48.388 145.105 52.755 146.673 51.911 146.673 55.021 150.389 53.021 150.389 55.021 151.875 54.221 151.875 55.96 153.706 54.975 153.706 53.236 155.23 52.416 155.244 43.069 153.341 44.093 153.341 46.471" style="fill:#66a042"/><polygon id="polygon7682" points="144.337 59.916 144.752 59.693 144.752 58.31 145.105 58.12 145.105 55.96 143.535 56.805 143.535 55.96 141.934 56.822 141.934 59.7" style="fill:#66a042"/><polygon id="polygon7684" points="148.908 56.302 148.908 55.752 148.908 55.547 148.908 54.997 148.269 55.342 148.269 55.891 148.269 56.096 148.269 56.646" style="fill:#66a042"/></g><polygon id="polygon7686" points="155.243 56.706 155.243 41.011 141.934 48.172 141.934 63.867" transform="translate(-32.258,-30.02)" style="fill:none"/><circle id="circle7688" cx="138.68" cy="31.538" r="26.6" style="opacity:.28999999;fill:#7acdd2"/><circle id="circle7690" cx="138.68" cy="31.538" r="8.951" style="fill:#7acdd2"/><circle id="circle7692" cx="138.68" cy="31.538" r="3.785" style="fill:#fff"/><circle id="circle7694" cx="109.676" cy="50.723" r="1.64" style="fill:#fff"/><circle id="circle7696" cx="134.895" cy="63.679" r="1.64" style="fill:#fff"/><circle id="circle7698" cx="162.282" cy="48.664" r="1.64" style="fill:#fff"/><circle id="circle7700" cx="177.663" cy="38.98" r="1.64" style="fill:#fff"/><circle id="circle7702" cx="177.663" cy="21.128" r="1.64" style="fill:#fff"/><circle id="circle7704" cx="155.61" cy="1.64" r="1.64" style="fill:#fff"/><circle id="circle7706" cx="134.895" cy="3.352" r="1.64" style="fill:#fff"/><circle id="circle7708" cx="106.951" cy="7.818" r="1.64" style="fill:#fff"/><circle id="circle7710" cx="103.26" cy="20.571" r="1.64" style="fill:#fff"/><circle id="circle7712" cx="97.464" cy="40.488" r="1.64" style="fill:#fff"/><g id="g7714" transform="translate(-32.258,-30.02)"><line id="line7716" x1="170.938" x2="167.153" y1="61.558" y2="93.699" stroke-miterlimit="10" style="fill:none;stroke:#fff;stroke-width:.45190001;stroke-miterlimit:10"/><line id="line7718" x1="170.938" x2="141.934" y1="61.558" y2="80.743" stroke-miterlimit="10" style="fill:none;stroke:#fff;stroke-width:.45190001;stroke-miterlimit:10"/><line id="line7720" x1="170.938" x2="135.518" y1="61.558" y2="50.591" stroke-miterlimit="10" style="fill:none;stroke:#fff;stroke-width:.45190001;stroke-miterlimit:10"/><line id="line7722" x1="170.938" x2="138.903" y1="61.558" y2="37.838" stroke-miterlimit="10" style="fill:none;stroke:#fff;stroke-width:.45190001;stroke-miterlimit:10"/><line id="line7724" x1="170.938" x2="167.153" y1="61.558" y2="33.372" stroke-miterlimit="10" style="fill:none;stroke:#fff;stroke-width:.45190001;stroke-miterlimit:10"/><line id="line7726" x1="170.938" x2="187.868" y1="61.558" y2="31.66" stroke-miterlimit="10" style="fill:none;stroke:#fff;stroke-width:.45190001;stroke-miterlimit:10"/><line id="line7728" x1="170.938" x2="209.921" y1="61.558" y2="51.148" stroke-miterlimit="10" style="fill:none;stroke:#fff;stroke-width:.45190001;stroke-miterlimit:10"/><line id="line7730" x1="170.938" x2="129.722" y1="61.558" y2="70.508" stroke-miterlimit="10" style="fill:none;stroke:#fff;stroke-width:.45190001;stroke-miterlimit:10"/><line id="line7732" x1="170.938" x2="209.921" y1="61.558" y2="69" stroke-miterlimit="10" style="fill:none;stroke:#fff;stroke-width:.45190001;stroke-miterlimit:10"/><line id="line7734" x1="170.938" x2="194.54" y1="61.558" y2="78.684" stroke-miterlimit="10" style="fill:none;stroke:#fff;stroke-width:.45190001;stroke-miterlimit:10"/></g><polygon id="polygon7736" points="190.901 69.61 190.901 53.914 177.593 61.075 177.593 76.771" transform="translate(-32.258,-30.02)" style="fill:#00637a"/><g id="g7738" transform="translate(-32.258,-30.02)"><polygon id="polygon7740" points="184.452 68.245 185.334 67.77 185.334 69.31 186.808 68.517 186.808 66.977 188.553 66.038 188.553 67.813 190.901 66.549 190.901 64.13 190.901 64.022 190.901 60.474 190.901 60.174 190.901 55.421 186.205 57.947 186.205 62.248 184.452 63.192" style="fill:#66a042"/><polygon id="polygon7742" points="185.086 61.016 185.086 59.211 183.408 60.113 183.408 61.919" style="fill:#66a042"/><polygon id="polygon7744" points="180.56 67.395 180.56 66.044 181.539 65.517 181.539 61.908 182.344 61.475 182.344 60.176 181.138 60.826 181.138 61.485 177.593 63.393 177.593 67.641 178.805 66.988 178.805 68.339" style="fill:#66a042"/></g><polygon id="polygon7746" points="136.702 71.523 136.702 55.828 150.011 62.989 150.011 78.684" transform="translate(-32.258,-30.02)" style="fill:#00637a"/><g id="g7748" transform="translate(-32.258,-30.02)"><polygon id="polygon7750" points="146.082 74.538 146.082 74.184 147.128 74.747 147.128 72.447 144.99 71.296 144.99 71.65 143.944 71.087 143.944 73.388" style="fill:#66a042"/><polygon id="polygon7752" points="148.472 73.29 148.472 74.465 149.564 75.052 149.564 73.877" style="fill:#66a042"/><polygon id="polygon7754" points="148.118 74.706 148.118 75.881 149.21 76.468 149.21 75.293" style="fill:#66a042"/><polygon id="polygon7756" points="145.513 70.642 145.513 69.467 144.421 68.88 144.421 70.054" style="fill:#66a042"/><polygon id="polygon7758" points="145.013 66.671 145.013 66.238 144.043 65.716 144.043 70.06 142.601 69.284 142.601 71.709 138.656 69.586 138.656 67.162 136.702 66.111 136.702 58.211 137.771 58.787 137.771 56.903 140.129 58.172 140.129 60.055 144.043 62.161 144.043 62.934 145.013 63.456 145.013 62.426 145.714 62.803 145.714 62.119 147.023 62.823 147.023 63.508 148.958 64.549 148.958 65.439 150.003 66.002 150.003 70.247 146.059 68.125 146.059 67.234" style="fill:#66a042"/></g><polygon id="polygon7760" points="170.938 51.148 184.247 43.987 170.938 36.826 157.629 43.987" transform="translate(-32.258,-30.02)" style="fill:#00637a"/><g id="g7762" transform="translate(-20.258,-30.02)" style="fill:#000"><path id="path7764" d="m 54.287,51.947 0,2.531 -3.977,0 0,14.39 -2.772,0 0,-14.39 -4.001,0 0,-2.531 10.75,0 z" style="fill:#000"/><path id="path7766" d="m 73.096,68.868 -3.278,0 -4.965,-6.532 -1.181,0 0,6.532 -2.772,0 0,-16.897 5.544,0 c 3.326,0 5.857,1.495 5.905,5.231 0.024,3.061 -1.904,4.676 -4.339,5.038 l 5.086,6.628 z m -6.628,-8.966 c 1.904,0 3.109,-0.964 3.109,-2.7 0,-1.784 -1.278,-2.724 -3.109,-2.724 l -2.796,0 0,5.423 2.796,0 z" style="fill:#000"/><path id="path7768" d="m 82.516,51.995 0,11.811 c 0,2.025 1.519,2.868 3.061,2.868 1.543,0 3.109,-0.844 3.109,-2.868 l 0,-11.811 2.772,0 0,11.811 c 0,3.808 -2.965,5.375 -5.881,5.375 -2.941,0 -5.833,-1.567 -5.833,-5.375 l 0,-11.811 2.772,0 z" style="fill:#000"/><path id="path7770" d="m 109.42,54.382 -6.701,0 0,4.773 6.604,0 0,2.483 -6.604,0 c 0,1.591 -0.024,3.061 -0.024,4.7 l 6.725,0 0,2.507 -9.473,0 0,-16.946 9.473,0 0,2.483 z" style="fill:#000"/></g><g id="g7772" transform="translate(-44.258,-30.02)" style="fill:#000"><path id="path7774" d="m 241.174,56.069 c -1.302,-1.374 -2.989,-2.025 -4.628,-1.976 -3.857,0.072 -5.833,3.302 -5.833,6.387 0,3.061 2.025,6.243 5.833,6.243 1.736,0 3.688,-0.82 4.99,-2.386 l 1.928,1.494 c -1.832,2.218 -4.146,3.399 -6.918,3.399 -5.616,0 -8.605,-4.363 -8.605,-8.75 0,-4.387 2.989,-8.87 8.605,-8.87 2.483,0 4.676,0.795 6.363,2.844 l -1.735,1.615 z" style="fill:#000"/><path id="path7776" d="m 262.559,68.868 -3.278,0 -4.965,-6.532 -1.181,0 0,6.532 -2.772,0 0,-16.897 5.544,0 c 3.326,0 5.857,1.495 5.905,5.231 0.024,3.061 -1.904,4.676 -4.339,5.038 l 5.086,6.628 z m -6.629,-8.966 c 1.904,0 3.109,-0.964 3.109,-2.7 0,-1.784 -1.278,-2.724 -3.109,-2.724 l -2.796,0 0,5.423 2.796,0 z" style="fill:#000"/><path id="path7778" d="m 274.347,51.875 2.941,0 6.122,16.993 -2.892,0 -1.88,-5.134 -5.616,0 -1.808,5.134 -2.917,0 6.05,-16.993 z m 3.447,9.449 -1.567,-4.821 -0.386,-1.736 -0.12,0 -0.386,1.736 -1.494,4.821 3.953,0 z" style="fill:#000"/><path id="path7780" d="m 299.4,54.478 -6.701,0 0,4.821 6.604,0 0,2.483 -6.604,0 0,7.087 -2.772,0 0,-16.898 9.473,0 0,2.507 z" style="fill:#000"/><path id="path7782" d="m 316.103,51.947 0,2.531 -3.977,0 0,14.39 -2.772,0 0,-14.39 -4.001,0 0,-2.531 10.75,0 z" style="fill:#000"/></g><g id="g7784" transform="translate(-32.258,-30.02)"><path id="path7786" d="m 174.349,45.358 -0.759,-0.408 -0.728,0.392 -0.995,-0.535 1.686,-0.907 0.651,0.35 1.45,-0.78 -0.979,-0.527 2.514,-1.353 -3.362,-1.809 -0.52,0.28 -1.423,-0.766 -0.601,0.323 -0.818,-0.44 -2.323,1.25 -0.588,-0.316 -2.529,1.361 0.725,0.39 -0.725,0.39 0.54,0.291 -1.136,0.611 -0.818,-0.44 -2.528,1.361 2.528,1.361 0.874,-0.47 0.335,0.18 -0.591,0.318 1.56,0.839 -0.898,0.483 3.362,1.809 0.73,-0.393 1.1,0.592 2,-1.076 -0.739,-0.398 0.944,-0.508 1.301,0.7 2.237,-1.204 0.378,0.203 2.001,-1.077 -2.001,-1.077 -1.855,1 z m -8.318,-0.842 -0.119,0.064 -0.005,-0.003 0.119,-0.064 0.005,0.003 z" style="fill:#ededed"/><polygon id="polygon7788" points="180.967 43.399 178.966 42.322 176.965 43.399 178.966 44.476" style="fill:#fff"/></g></svg>